<?xml version="1.0" encoding="UTF-8"?>
<svg id="Layer_2" data-name="Layer 2" xmlns="http://www.w3.org/2000/svg" xmlns:xlink="http://www.w3.org/1999/xlink" viewBox="0 0 325.56 83.77">
  <defs>
    <style>
      .cls-1 {
        fill: url(#linear-gradient);
      }
    </style>
    <linearGradient id="linear-gradient" x1="-19.97" y1="91.4" x2="485.99" y2="-40.05" gradientUnits="userSpaceOnUse">
      <stop offset="0" stop-color="#fee35f"/>
      <stop offset="0" stop-color="#dda027"/>
      <stop offset=".79" stop-color="#ce9b2b"/>
      <stop offset=".8" stop-color="#ffd046"/>
      <stop offset=".95" stop-color="#ce9b2b"/>
    </linearGradient>
  </defs>
  <g id="Layer_1-2" data-name="Layer 1">
    <path class="cls-1" d="m0,83.37V5.57h26.34c3.56,0,6.59,1.09,9.11,3.28,2.52,2.19,4.15,4.72,4.89,7.61.74,2.89.54,5.89-.61,9-1.15,3.11-3.32,5.52-6.5,7.22,5.04,2.3,9,5.8,11.89,10.5,2.89,4.71,4.19,9.65,3.89,14.84-.15,2.74-.65,5.24-1.5,7.5-.85,2.26-1.87,4.21-3.06,5.83-1.19,1.63-2.76,3.09-4.72,4.39-1.96,1.3-3.83,2.35-5.61,3.17-1.78.82-3.98,1.52-6.61,2.11-2.63.59-4.91,1.04-6.84,1.33-1.93.3-4.33.52-7.22.67-2.89.15-5.19.24-6.89.28-1.71.04-3.89.06-6.56.06ZM16.34,9.91v20.23c2.59-.52,4.59-1.78,6-3.78,1.41-2,2.11-4.11,2.11-6.33s-.7-4.32-2.11-6.28c-1.41-1.96-3.41-3.24-6-3.83Zm0,68.35c3.63-.96,6.7-2.59,9.22-4.89,2.52-2.3,4.33-4.85,5.45-7.67,1.11-2.82,1.63-5.82,1.56-9-.07-3.18-.7-6.19-1.89-9-1.19-2.82-3.02-5.33-5.5-7.56-2.48-2.22-5.43-3.82-8.84-4.78v42.9Zm62.91-48.68c2.89-.52,5.5-.57,7.84-.17,2.33.41,4.28,1.24,5.83,2.5,1.56,1.26,2.82,2.72,3.78,4.39.96,1.67,1.52,3.46,1.67,5.39.15,1.93-.02,3.78-.5,5.56-.48,1.78-1.41,3.43-2.78,4.95-1.37,1.52-3.1,2.65-5.17,3.39-1.85.74-4.19,1.28-7,1.61-2.82.33-4.98.52-6.5.56-1.52.04-3.95.06-7.28.06,2.96,6.08,6.93,11.19,11.89,15.34,4.96,4.15,9.59,6.22,13.89,6.22v2.89c-13.49,3.04-24.64,1.48-33.45-4.67-6.52-4.52-10.19-10.41-11-17.67-.96-7.78,1.63-14.56,7.78-20.34,5.11-4.89,12.11-8.22,21.01-10Zm-11.89,24.12c8.67,0,13.78-2.45,15.34-7.34,1.04-3.26.33-6.48-2.11-9.67-1.78-2.3-3.78-3.45-6-3.45-2,0-3.67.74-5,2.22-1.33,1.48-2.22,3.3-2.67,5.45-.44,2.15-.63,4.39-.56,6.72.07,2.33.41,4.35,1,6.06Zm35.56,16.34V4.57h16.45v64.8c0,2.89-.89,5.41-2.67,7.56-1.78,2.15-3.96,3.78-6.56,4.89-2.52.96-4.93,1.44-7.22,1.44h-2.78v-4.22c.07,0,.2.06.39.17.18.11.31.17.39.17,1.33,0,2-3.11,2-9.34Zm20.56-14v-26.79h16.34v37.68c0,1.04.11,2.04.33,3,.22.96.46,1.74.72,2.33.26.59.74,1.35,1.45,2.28.7.93,1.2,1.56,1.5,1.89.3.33,1,1.02,2.11,2.06,1.11,1.04,1.78,1.71,2,2,1.33-1.26,2.3-2.18,2.89-2.78.59-.59,1.26-1.37,2-2.33.74-.96,1.24-1.59,1.5-1.89.26-.3.57-.91.94-1.83.37-.93.57-1.56.61-1.89.04-.33.11-1.13.22-2.39.11-1.26.15-2.22.11-2.89-.04-.67-.06-1.91-.06-3.72v-31.51h16.23v37.68c0,1.04.13,2.04.39,3,.26.96.5,1.76.72,2.39.22.63.7,1.39,1.44,2.28.74.89,1.26,1.5,1.56,1.83.3.33.98,1.02,2.06,2.06,1.07,1.04,1.76,1.71,2.06,2,.3-.3.98-.96,2.06-2,1.07-1.04,1.76-1.72,2.06-2.06.3-.33.81-.96,1.56-1.89.74-.93,1.22-1.68,1.45-2.28.22-.59.44-1.37.67-2.33.22-.96.33-1.96.33-3V29.25h16.34v27.12c0,1.56-.28,3.06-.83,4.5-.56,1.44-1.48,2.95-2.78,4.5-1.3,1.56-2.48,2.87-3.56,3.95s-2.61,2.56-4.61,4.45c-2,1.89-3.52,3.32-4.56,4.28l-5.22,5.33h-5.78l-13.45-13.45-13.45,13.45h-5.78l-17.78-17.78-3.78-9.56Zm133.37,27.34h-16.23v-10.11c-1.78,3.19-3.85,5.63-6.22,7.34-2.37,1.71-4.74,2.63-7.11,2.78-2.37.15-4.72-.39-7.06-1.61s-4.41-2.98-6.22-5.28c-1.82-2.3-3.28-5.2-4.39-8.72-1.11-3.52-1.67-7.35-1.67-11.5s.56-7.98,1.67-11.5c1.11-3.52,2.57-6.43,4.39-8.72,1.81-2.3,3.89-4.06,6.22-5.28s4.69-1.76,7.06-1.61c2.37.15,4.74,1.07,7.11,2.78,2.37,1.71,4.45,4.15,6.22,7.34v-10.11h16.23v54.24Zm-24.67-17c1.78,2.15,3.48,3.02,5.11,2.61,1.63-.41,2.67-1.98,3.11-4.72.44-2.74.31-5.89-.39-9.45-.7-3.56-1.67-7.06-2.89-10.5-1.22-3.45-2.72-6.24-4.5-8.39-1.78-2.15-3.48-3.02-5.11-2.61-1.63.41-2.67,1.98-3.11,4.72-.44,2.74-.32,5.89.39,9.45.7,3.56,1.67,7.06,2.89,10.5,1.22,3.45,2.72,6.24,4.5,8.39Zm30.79-37.12h16.34v10c2.45-4.59,5.65-7.67,9.61-9.22,3.96-1.56,7.91-1.3,11.84.78l-9.67,16.78c-.89-2.15-2.02-3.87-3.39-5.17-1.37-1.3-2.69-1.96-3.95-2-1.26-.04-2.33.83-3.22,2.61-.89,1.78-1.3,4.41-1.22,7.89v32.45h-16.34V29.25Zm42.01,0h16.34v54.13h-16.34V29.25Zm18.41-17.91v-2.18h-2.18v-2.4h-2.4v-2.18h-2.18v-2.4h-2.4V0h-2.18v2.18h-2.18v2.4h-2.4v2.18h-2.18v2.4h-2.4v2.18h-2.18v2.18h2.18v2.4h2.4v2.18h2.18v2.4h2.4v2.18h2.18v2.18h2.18v-2.18h2.4v-2.18h2.18v-2.4h2.4v-2.18h2.18v-2.4h2.18v-2.18h-2.18Zm-4.58,2.18h-2.18v2.4h-2.4v2.18h-2.18v-2.18h-2.18v-2.4h-2.4v-2.18h2.4v-2.18h2.18v-2.4h2.18v2.4h2.4v2.18h2.18v2.18Z"/>
  </g>
</svg>